<?xml version="1.0" standalone="no"?>
<!DOCTYPE svg PUBLIC "-//W3C//DTD SVG 20010904//EN"
 "http://www.w3.org/TR/2001/REC-SVG-20010904/DTD/svg10.dtd">
<svg version="1.0" xmlns="http://www.w3.org/2000/svg"
 width="1110.000000pt" height="680.000000pt" viewBox="0 0 1110.000000 680.000000"
 preserveAspectRatio="xMidYMid meet">
<metadata>
Created by potrace 1.16, written by Peter Selinger 2001-2019
</metadata>
<g transform="translate(0.000000,680.000000) scale(0.100000,-0.100000)"
fill="#000000" stroke="none">
<path d="M7165 4729 c-81 -19 -135 -76 -135 -142 0 -43 37 -77 84 -77 54 0 76
-24 76 -81 0 -42 3 -51 23 -58 12 -5 25 -7 28 -5 4 2 28 5 54 6 60 2 67 -9 59
-95 -6 -56 -4 -71 10 -86 47 -52 104 -30 171 63 80 113 84 243 12 338 -40 52
-148 112 -239 133 -75 17 -86 17 -143 4z"/>
<path d="M7241 4030 c-110 -23 -278 -96 -298 -129 -24 -39 -173 -404 -167
-410 3 -3 60 -17 127 -31 l122 -26 -3 -89 c-6 -188 -46 -549 -88 -805 -24
-143 -24 -589 0 -903 27 -363 44 -548 49 -553 2 -3 42 -7 89 -11 l84 -6 43
329 c107 819 118 890 126 859 5 -16 70 -284 145 -594 116 -480 139 -565 156
-571 10 -4 46 -10 80 -14 l61 -7 6 158 c21 497 -4 1000 -65 1313 -11 58 -20
114 -21 125 0 23 40 541 49 626 l6 56 54 12 c44 10 54 16 50 29 -3 9 -21 112
-42 227 -37 212 -47 247 -80 276 -35 29 -162 100 -215 120 -61 24 -200 33
-268 19z"/>
<path d="M6375 2781 c-45 -27 -62 -51 -76 -102 -11 -43 -10 -50 12 -95 13 -27
39 -59 58 -71 57 -38 149 -26 196 26 19 22 19 22 -7 44 -51 43 -63 105 -28
150 26 32 26 34 -10 52 -40 21 -108 19 -145 -4z"/>
<path d="M6899 950 c-46 -13 -78 -41 -96 -81 l-17 -39 -2289 0 c-1826 0 -2288
-3 -2285 -12 6 -17 7388 -19 7388 -3 0 7 -312 11 -910 13 l-910 2 0 66 0 66
-137 -4 c-123 -3 -142 -5 -175 -26 -22 -14 -44 -39 -54 -63 l-18 -39 -113 0
-113 0 0 65 0 65 -122 -1 c-68 0 -135 -4 -149 -9z"/>
</g>
</svg>
