<?xml version="1.0" standalone="no"?>
<!DOCTYPE svg PUBLIC "-//W3C//DTD SVG 20010904//EN"
 "http://www.w3.org/TR/2001/REC-SVG-20010904/DTD/svg10.dtd">
<svg version="1.0" xmlns="http://www.w3.org/2000/svg"
 width="1129.000000pt" height="619.000000pt" viewBox="0 0 1129.000000 619.000000"
 preserveAspectRatio="xMidYMid meet">
<metadata>
Created by potrace 1.16, written by Peter Selinger 2001-2019
</metadata>
<g transform="translate(0.000000,619.000000) scale(0.100000,-0.100000)"
fill="#000000" stroke="none">
<path d="M3067 5363 c-19 -21 -101 -484 -91 -515 4 -12 -6 -45 -24 -87 -84
-184 -80 -380 13 -568 52 -105 145 -209 230 -258 28 -16 51 -29 52 -30 2 -1
-8 -37 -21 -81 -16 -53 -28 -78 -38 -76 -7 2 -47 19 -89 38 -105 47 -149 44
-163 -12 -11 -43 17 -70 121 -119 53 -25 98 -47 100 -48 1 -2 -6 -32 -18 -68
-11 -35 -22 -70 -24 -76 -3 -9 -28 0 -77 26 -92 49 -167 73 -343 111 -311 67
-432 186 -385 380 16 66 5 80 -42 53 -87 -50 -100 -228 -25 -340 64 -96 173
-148 416 -198 184 -39 294 -85 375 -156 25 -22 35 -39 38 -72 7 -62 36 -115
90 -169 46 -45 48 -49 48 -103 0 -31 5 -65 10 -76 10 -18 7 -19 -40 -19 l-50
0 0 -674 c0 -370 -3 -701 -6 -735 l-7 -61 372 0 371 0 0 70 0 70 -295 0 -295
0 0 265 0 265 295 0 295 0 0 70 0 70 -295 0 -295 0 0 260 0 260 295 0 295 0 0
67 c0 49 5 71 17 85 11 13 19 42 21 85 4 61 7 67 45 102 51 46 87 121 87 185
0 26 -13 94 -29 150 -16 55 -34 118 -40 139 l-10 39 104 48 c88 41 105 53 111
76 10 39 -14 78 -51 82 -17 2 -61 -11 -112 -34 -46 -20 -86 -34 -89 -32 -3 3
-14 41 -26 84 -16 60 -18 79 -9 82 32 11 140 103 184 157 161 200 192 480 76
709 -17 34 -32 78 -34 98 -13 124 -79 465 -92 481 -30 33 -73 22 -145 -38 -36
-30 -70 -55 -75 -55 -5 0 -47 -27 -93 -59 l-85 -59 -17 66 -16 67 5 -65 5 -65
-33 1 c-27 1 -35 6 -40 25 -6 24 -6 24 -10 -3 l-4 -27 -88 60 c-62 43 -94 59
-109 56 -15 -4 -39 10 -91 54 -76 64 -119 76 -150 42z m149 -134 c69 -55 68
-51 58 -161 l-7 -67 -89 -32 c-127 -46 -128 -45 -94 145 14 81 28 151 31 156
12 20 38 9 101 -41z m749 41 c3 -6 17 -76 31 -157 31 -184 29 -188 -71 -152
-37 13 -69 28 -71 34 -2 5 -8 54 -12 108 l-8 99 44 39 c44 38 75 49 87 29z
m-356 -806 c40 -34 43 -88 7 -131 -16 -19 -26 -45 -28 -73 -6 -80 -68 -79 -68
2 0 31 -6 46 -30 68 -41 39 -42 90 -1 131 37 37 79 38 120 3z m-136 -1496 c83
-12 186 -4 265 18 18 5 22 2 22 -18 0 -13 7 -34 16 -46 l15 -22 -236 0 c-230
0 -235 0 -225 19 5 11 10 32 10 47 0 23 3 25 23 20 12 -4 61 -12 110 -18z"/>
<path d="M7541 5163 c-17 -15 -27 -60 -65 -278 -34 -200 -50 -272 -71 -314
-90 -182 -85 -409 12 -594 43 -82 141 -191 214 -237 27 -18 49 -34 49 -36 0
-6 -42 -159 -45 -162 -1 -1 -40 16 -87 38 -47 22 -95 40 -107 40 -49 0 -82
-80 -45 -111 9 -8 58 -34 109 -59 l93 -45 -39 -135 c-59 -208 -50 -281 45
-374 33 -32 46 -52 46 -72 l0 -28 -30 29 c-16 16 -30 39 -30 52 0 22 -4 23
-70 23 l-70 0 0 -735 0 -735 70 0 70 0 0 607 0 608 195 -195 195 -195 200 200
200 200 0 -613 0 -612 70 0 70 0 0 730 0 730 -65 0 -65 0 34 45 c44 57 63 136
48 197 -10 39 -9 46 15 83 45 68 133 153 254 245 203 155 273 253 273 385 0
57 -5 81 -29 128 -40 80 -93 127 -145 127 -49 0 -52 -17 -13 -64 41 -49 63
-105 63 -166 0 -108 -69 -209 -221 -325 -57 -43 -139 -109 -181 -147 l-76 -68
-12 36 c-7 19 -10 37 -8 38 1 2 51 26 109 53 89 42 107 55 113 78 5 18 2 35
-9 51 -27 41 -57 40 -156 -5 -50 -23 -94 -39 -98 -36 -5 2 -16 32 -26 67 -9
34 -19 67 -22 74 -2 6 20 26 49 44 127 78 242 236 284 390 37 136 18 323 -45
450 -19 38 -26 62 -20 76 8 22 -63 462 -80 501 -12 27 -54 39 -84 25 -12 -6
-82 -60 -156 -122 -128 -106 -136 -111 -175 -108 -38 3 -41 5 -40 31 1 18 0
20 -3 7 -4 -19 -38 -40 -65 -40 -7 0 -9 24 -5 73 6 78 -6 65 -18 -20 -9 -69
-28 -70 -104 -5 -148 128 -234 192 -256 192 -12 0 -32 -8 -44 -17z m199 -183
c66 -55 120 -104 120 -108 0 -4 -4 -13 -9 -20 -9 -15 -261 -112 -290 -112 -32
0 -33 29 -8 173 23 127 36 167 58 167 5 0 63 -45 129 -100z m689 86 c7 -8 23
-78 36 -157 25 -144 23 -169 -10 -169 -30 0 -281 99 -290 115 -8 13 -1 25 38
60 68 62 197 165 206 165 5 0 14 -6 20 -14z m-400 -787 c63 -22 80 -102 32
-150 -23 -23 -31 -40 -33 -77 -3 -45 -4 -47 -33 -47 -29 0 -30 2 -33 50 -2 34
-10 56 -23 68 -53 49 -39 131 26 158 27 11 28 11 64 -2z m-34 -1519 c50 0 117
7 150 14 33 8 60 14 61 13 1 -1 4 -21 7 -43 l5 -42 -119 -118 -119 -119 -115
115 c-63 63 -111 117 -106 120 13 8 31 47 31 68 0 18 3 19 58 6 31 -8 98 -14
147 -14z"/>
<path d="M4496 3948 c-38 -35 -39 -86 -1 -123 50 -51 139 -14 139 58 0 76 -83
114 -138 65z"/>
<path d="M6316 3678 c-38 -35 -39 -86 -1 -123 50 -51 139 -14 139 58 0 76 -83
114 -138 65z"/>
<path d="M9056 3388 c-38 -35 -39 -86 -1 -123 50 -51 139 -14 139 58 0 76 -83
114 -138 65z"/>
<path d="M2276 2948 c-38 -35 -39 -86 -1 -123 50 -51 139 -14 139 58 0 76 -83
114 -138 65z"/>
<path d="M1700 2165 l0 -735 69 0 c63 0 69 2 75 23 3 12 93 110 201 217 l195
195 195 -195 c138 -138 195 -201 195 -217 0 -22 4 -23 70 -23 l70 0 0 730 0
730 -70 0 -70 0 0 -607 0 -608 -195 195 -195 195 -193 -193 c-106 -105 -196
-192 -200 -192 -4 0 -7 275 -7 610 l0 610 -70 0 -70 0 0 -735z"/>
<path d="M5280 2165 l0 -735 365 0 365 0 0 70 0 70 -295 0 -295 0 2 593 3 592
293 3 292 2 0 70 0 70 -365 0 -365 0 0 -735z"/>
<path d="M6370 2165 l0 -735 365 0 365 0 0 735 0 735 -365 0 -365 0 0 -735z
m590 0 l0 -595 -225 0 -225 0 0 595 0 595 225 0 225 0 0 -595z"/>
<path d="M8860 2165 l0 -735 365 0 365 0 0 70 0 70 -295 0 -295 0 0 265 0 265
295 0 295 0 0 70 0 70 -295 0 -295 0 0 260 0 260 295 0 295 0 0 70 0 70 -365
0 -365 0 0 -735z"/>
<path d="M4190 2160 l0 -730 365 0 365 0 0 70 0 70 -295 0 -295 0 0 660 0 660
-70 0 -70 0 0 -730z"/>
<path d="M7916 1768 c-38 -35 -39 -86 -1 -123 50 -51 139 -14 139 58 0 76 -83
114 -138 65z"/>
<path d="M8966 1028 c-38 -35 -39 -86 -1 -123 50 -51 139 -14 139 58 0 76 -83
114 -138 65z"/>
<path d="M4056 948 c-38 -35 -39 -86 -1 -123 50 -51 139 -14 139 58 0 76 -83
114 -138 65z"/>
</g>
</svg>
